TITLE ""
FILE "DISC2Track31.mp3" MP3
  TRACK 01 AUDIO
    TITLE "DISC2Track31_01"
    INDEX 01 00:00:00
  TRACK 02 AUDIO
    TITLE "DISC2Track31_02"
    INDEX 01 00:04:16
  TRACK 03 AUDIO
    TITLE "DISC2Track31_03"
    INDEX 01 00:04:37
  TRACK 04 AUDIO
    TITLE "DISC2Track31_04"
    INDEX 01 00:07:71
  TRACK 05 AUDIO
    TITLE "DISC2Track31_05"
    INDEX 01 00:11:65
  TRACK 06 AUDIO
    TITLE "DISC2Track31_06"
    INDEX 01 00:15:51
  TRACK 07 AUDIO
    TITLE "DISC2Track31_07"
    INDEX 01 00:15:75
  TRACK 08 AUDIO
    TITLE "DISC2Track31_08"
    INDEX 01 00:19:04
  TRACK 09 AUDIO
    TITLE "DISC2Track31_09"
    INDEX 01 00:22:20
  TRACK 10 AUDIO
    TITLE "DISC2Track31_10"
    INDEX 01 00:25:24
  TRACK 11 AUDIO
    TITLE "DISC2Track31_11"
    INDEX 01 00:25:49
  TRACK 12 AUDIO
    TITLE "DISC2Track31_12"
    INDEX 01 00:30:43
  TRACK 13 AUDIO
    TITLE "DISC2Track31_13"
    INDEX 01 00:34:70
  TRACK 14 AUDIO
    TITLE "DISC2Track31_14"
    INDEX 01 00:39:20
  TRACK 15 AUDIO
    TITLE "DISC2Track31_15"
    INDEX 01 00:39:48
  TRACK 16 AUDIO
    TITLE "DISC2Track31_16"
    INDEX 01 00:44:19
  TRACK 17 AUDIO
    TITLE "DISC2Track31_17"
    INDEX 01 00:48:27
  TRACK 18 AUDIO
    TITLE "DISC2Track31_18"
    INDEX 01 00:52:27
  TRACK 19 AUDIO
    TITLE "DISC2Track31_19"
    INDEX 01 00:52:52
  TRACK 20 AUDIO
    TITLE "DISC2Track31_20"
    INDEX 01 00:57:63
  TRACK 21 AUDIO
    TITLE "DISC2Track31_21"
    INDEX 01 01:01:41
  TRACK 22 AUDIO
    TITLE "DISC2Track31_22"
    INDEX 01 01:05:12
  TRACK 23 AUDIO
    TITLE "DISC2Track31_23"
    INDEX 01 01:05:31
  TRACK 24 AUDIO
    TITLE "DISC2Track31_24"
    INDEX 01 01:09:21
  TRACK 25 AUDIO
    TITLE "DISC2Track31_25"
    INDEX 01 01:13:31
  TRACK 26 AUDIO
    TITLE "DISC2Track31_26"
    INDEX 01 01:17:33
  TRACK 27 AUDIO
    TITLE "DISC2Track31_27"
    INDEX 01 01:17:58
  TRACK 28 AUDIO
    TITLE "DISC2Track31_28"
    INDEX 01 01:21:70
  TRACK 29 AUDIO
    TITLE "DISC2Track31_29"
    INDEX 01 01:26:08
  TRACK 30 AUDIO
    TITLE "DISC2Track31_30"
    INDEX 01 01:30:18
  TRACK 31 AUDIO
    TITLE "DISC2Track31_31"
    INDEX 01 01:30:39
  TRACK 32 AUDIO
    TITLE "DISC2Track31_32"
    INDEX 01 01:33:45
  TRACK 33 AUDIO
    TITLE "DISC2Track31_33"
    INDEX 01 01:36:67
  TRACK 34 AUDIO
    TITLE "DISC2Track31_34"
    INDEX 01 01:40:06
  TRACK 35 AUDIO
    TITLE "DISC2Track31_35"
    INDEX 01 01:40:32
  TRACK 36 AUDIO
    TITLE "DISC2Track31_36"
    INDEX 01 01:44:24
  TRACK 37 AUDIO
    TITLE "DISC2Track31_37"
    INDEX 01 01:47:67
  TRACK 38 AUDIO
    TITLE "DISC2Track31_38"
    INDEX 01 01:51:27
  TRACK 39 AUDIO
    TITLE "DISC2Track31_39"
    INDEX 01 01:51:53
  TRACK 40 AUDIO
    TITLE "DISC2Track31_40"
    INDEX 01 01:54:65
  TRACK 41 AUDIO
    TITLE "DISC2Track31_41"
    INDEX 01 01:58:43
  TRACK 42 AUDIO
    TITLE "DISC2Track31_42"
    INDEX 01 02:02:14
